# xmcd
#
# Track frame offsets:
#	180
#	21682
#	40866
#	56059
#	76963
#	114035
#	134098
#	156288
#	170440
#
# Disc length: 2657
#
# Revision: 3
# Processed by: cddbd v1.5.1PL0 Copyright (c) Steve Scherf et al.
# Submitted via: OrangeCD 5.1
# Normalized: r2:DSETVAR1
#
DISCID=760a5f09
DTITLE=Various Artist - Southern Comfort Rocks the Blues '96 Tour
DYEAR=1900
DGENRE=Blues
TTITLE0=George Clinton - Hey Good Lookin ('96 Remix)
TTITLE1=The Radiators - Last Getaway
TTITLE2=Taj Mahal - Cheatin' On You
TTITLE3=The Subdudes - All The Time In The World
TTITLE4=P-Funk All Stars - Dog Star (Fly On)
TTITLE5=George Clinton - Do Fries Go With That Shake? ('96 Remix)
TTITLE6=The Radiators - Wait Till The Medicine Show
TTITLE7=The Subdudes - Why Do You Hurt Me So
TTITLE8=P-Funk All Stars - Sick 'Em
EXTD=
EXTT0=
EXTT1=
EXTT2=
EXTT3=
EXTT4=
EXTT5=
EXTT6=
EXTT7=
EXTT8=
PLAYORDER=
